<svg width="197" height="53" viewBox="0 0 197 53" fill="none" xmlns="http://www.w3.org/2000/svg">
<path d="M8.288 4.02H1.848V22.5H8.288C14 22.5 18.368 18.776 18.368 13.204C18.368 7.52 14 4.02 8.288 4.02ZM8.26 8.388C11.172 8.388 13.44 9.928 13.44 13.204C13.44 16.368 11.172 18.16 8.26 18.16H6.664V8.388H8.26ZM34.3133 14.8C34.3133 11.244 31.7653 8.164 27.6213 8.164C23.4213 8.164 20.1453 11.328 20.1453 15.5C20.1453 19.672 23.3933 22.836 28.0133 22.836C30.0573 22.836 31.9053 22.22 33.5853 20.96L31.8493 17.684C30.7013 18.384 29.5253 18.776 28.1813 18.776C26.6693 18.776 25.5773 18.272 25.0453 17.18H34.0053C34.1733 16.564 34.3133 15.64 34.3133 14.8ZM27.4253 11.944C28.6573 11.944 29.6933 12.756 29.7493 14.044H24.8773C25.2693 12.7 26.2493 11.944 27.4253 11.944ZM41.8274 8.136C38.6074 8.136 36.3954 9.76 36.3954 12.56C36.3954 14.884 37.9074 16.032 40.4554 17.068L42.0234 17.712C42.5554 17.936 42.8354 18.076 42.8354 18.412C42.8354 18.888 42.2754 19.028 41.6034 19.028C40.2314 19.028 38.8874 18.412 37.7394 17.292L35.4994 20.148C36.8154 21.884 39.0274 22.836 41.5194 22.836C44.8514 22.836 47.3154 21.128 47.3154 18.188C47.3154 15.836 45.7194 14.8 43.2274 13.792L41.8274 13.232C41.1834 12.98 40.8754 12.84 40.8754 12.476C40.8754 12.084 41.2394 11.944 41.8554 11.944C42.8914 11.944 43.8994 12.364 44.8234 13.148L47.0914 10.208C45.7194 8.78 43.8714 8.136 41.8274 8.136ZM51.9089 0.687999C50.2849 0.687999 48.9689 1.92 48.9689 3.544C48.9689 5.14 50.2849 6.372 51.9089 6.372C53.5329 6.372 54.8769 5.14 54.8769 3.544C54.8769 1.92 53.5329 0.687999 51.9089 0.687999ZM54.3449 8.5H49.5289V22.5H54.3449V8.5ZM67.51 8.5V9.928C66.67 8.808 65.326 8.164 63.422 8.164C59.67 8.164 56.786 10.712 56.786 14.996C56.786 19.224 59.614 21.884 63.422 21.884C64.934 21.884 66.194 21.464 67.09 20.596V21.1C67.09 22.836 65.606 23.564 63.898 23.564C62.442 23.564 61.182 23.032 59.782 21.968L57.346 25.356C59.026 26.784 61.294 27.876 64.402 27.876C68.686 27.876 71.906 25.804 71.906 20.792V8.5H67.51ZM64.458 17.908C63.058 17.908 61.714 16.872 61.714 14.94C61.714 13.036 63.03 12.14 64.458 12.14C65.802 12.14 67.174 12.924 67.174 14.912C67.174 16.9 65.83 17.908 64.458 17.908ZM83.3847 8.164C81.7327 8.164 80.3887 8.752 79.4367 9.648V8.5H75.0407V22.5H79.8567V14.576C79.8567 13.316 80.6967 12.504 81.8727 12.504C83.0487 12.504 83.9167 13.316 83.9167 14.576V22.5H88.7327V13.876C88.7327 10.432 86.6607 8.164 83.3847 8.164ZM105.216 14.8C105.216 11.244 102.668 8.164 98.5237 8.164C94.3237 8.164 91.0477 11.328 91.0477 15.5C91.0477 19.672 94.2957 22.836 98.9157 22.836C100.96 22.836 102.808 22.22 104.488 20.96L102.752 17.684C101.604 18.384 100.428 18.776 99.0837 18.776C97.5717 18.776 96.4797 18.272 95.9477 17.18H104.908C105.076 16.564 105.216 15.64 105.216 14.8ZM98.3277 11.944C99.5597 11.944 100.596 12.756 100.652 14.044H95.7797C96.1717 12.7 97.1517 11.944 98.3277 11.944ZM115.586 8.276C114.158 8.276 112.926 8.892 112.058 9.984V8.5H107.662V22.5H112.478V16.116C112.478 13.68 113.682 12.756 115.81 12.756H116.958V8.5C116.566 8.36 116.118 8.276 115.586 8.276ZM133.213 3.684C129.461 3.684 126.745 5.84 126.745 9.144C126.745 11.748 128.481 13.428 131.421 14.716L133.325 15.556C134.613 16.116 135.201 16.396 135.201 17.264C135.201 18.16 134.585 18.608 133.297 18.608C131.225 18.608 130.077 17.432 129.181 16.228L125.933 18.692C127.249 21.184 129.909 22.836 133.297 22.836C137.105 22.836 140.073 20.708 140.073 17.068C140.073 14.352 138.421 12.784 135.341 11.496L133.213 10.6C132.065 10.124 131.617 9.788 131.617 9.088C131.617 8.248 132.317 7.912 133.269 7.912C134.669 7.912 135.481 8.64 136.321 9.872L139.541 7.408C138.477 5.28 136.433 3.684 133.213 3.684ZM147.341 1.5H142.525V22.5H147.341V1.5ZM156.642 8.164C154.038 8.164 152.134 9.116 150.314 10.964L152.554 14.016C153.758 12.952 154.71 12.308 156.054 12.308C157.566 12.308 158.182 13.092 158.182 14.1V14.324H155.242C151.882 14.324 149.754 15.864 149.754 18.496C149.754 20.82 151.406 22.836 154.57 22.836C156.25 22.836 157.622 22.276 158.602 21.352V22.5H162.998V14.38C162.998 10.236 160.45 8.164 156.642 8.164ZM156.054 19.42C155.13 19.42 154.626 19 154.626 18.328C154.626 17.656 155.102 17.264 155.914 17.264H158.182V17.376C158.182 18.664 157.258 19.42 156.054 19.42ZM172.957 8.164C168.701 8.164 165.313 11.328 165.313 15.5C165.313 19.672 168.701 22.836 172.957 22.836C175.897 22.836 178.109 21.352 179.229 19.084L175.897 16.564C175.225 17.6 174.385 18.412 173.013 18.412C171.305 18.412 170.241 17.208 170.241 15.5C170.241 13.792 171.305 12.588 173.013 12.588C174.385 12.588 175.225 13.428 175.897 14.464L179.229 11.916C178.109 9.648 175.897 8.164 172.957 8.164ZM196.582 22.5L191.43 14.744L196.246 8.5H190.674L186.306 14.156V1.5H181.49V22.5H186.306V15.108L191.29 22.5H196.582ZM10.892 33.684C5.292 33.684 0.896 37.828 0.896 43.26C0.896 48.72 5.292 52.836 10.864 52.836C14.588 52.836 17.668 51.016 19.348 47.88L15.68 45.388C14.56 47.292 13.048 48.412 10.864 48.412C7.924 48.412 5.824 46.396 5.824 43.288C5.824 40.18 7.924 38.108 10.864 38.108C13.048 38.108 14.56 39.228 15.68 41.132L19.348 38.64C17.668 35.504 14.588 33.684 10.892 33.684ZM28.4449 38.164C24.2169 38.164 20.8289 41.328 20.8289 45.5C20.8289 49.672 24.2169 52.836 28.4449 52.836C32.6449 52.836 36.0889 49.672 36.0889 45.5C36.0889 41.328 32.6449 38.164 28.4449 38.164ZM28.4729 42.588C29.9849 42.588 31.1609 43.792 31.1609 45.5C31.1609 47.236 29.9849 48.412 28.4729 48.412C26.8489 48.412 25.7569 47.236 25.7569 45.5C25.7569 43.792 26.8489 42.588 28.4729 42.588ZM55.4208 38.164C53.5728 38.164 51.9208 38.836 50.8288 39.956C49.9048 38.808 48.5328 38.164 46.7688 38.164C45.1448 38.164 43.8568 38.724 42.9328 39.592V38.5H38.5368V52.5H43.3528V44.576C43.3528 43.26 44.1368 42.504 45.2848 42.504C46.4328 42.504 47.2728 43.26 47.2728 44.576V52.5H52.0888V44.576C52.0888 43.26 52.8728 42.504 54.0208 42.504C55.1688 42.504 56.0088 43.26 56.0088 44.576V52.5H60.8248V43.876C60.8248 40.432 58.7808 38.164 55.4208 38.164ZM80.7411 38.164C78.8931 38.164 77.2411 38.836 76.1491 39.956C75.2251 38.808 73.8531 38.164 72.0891 38.164C70.4651 38.164 69.1771 38.724 68.2531 39.592V38.5H63.8571V52.5H68.6731V44.576C68.6731 43.26 69.4571 42.504 70.6051 42.504C71.7531 42.504 72.5931 43.26 72.5931 44.576V52.5H77.4091V44.576C77.4091 43.26 78.1931 42.504 79.3411 42.504C80.4891 42.504 81.3291 43.26 81.3291 44.576V52.5H86.1451V43.876C86.1451 40.432 84.1011 38.164 80.7411 38.164ZM102.757 38.5H97.9414V46.368C97.9414 47.572 97.0734 48.412 95.9254 48.412C94.7494 48.412 93.8814 47.572 93.8814 46.368V38.5H89.0654V45.976C89.0654 50.148 91.9774 52.836 95.9254 52.836C99.8454 52.836 102.757 50.148 102.757 45.976V38.5ZM114.119 38.164C112.467 38.164 111.123 38.752 110.171 39.648V38.5H105.775V52.5H110.591V44.576C110.591 43.316 111.431 42.504 112.607 42.504C113.783 42.504 114.651 43.316 114.651 44.576V52.5H119.467V43.876C119.467 40.432 117.395 38.164 114.119 38.164ZM124.862 30.688C123.238 30.688 121.922 31.92 121.922 33.544C121.922 35.14 123.238 36.372 124.862 36.372C126.486 36.372 127.83 35.14 127.83 33.544C127.83 31.92 126.486 30.688 124.862 30.688ZM127.298 38.5H122.482V52.5H127.298V38.5ZM138.503 48.524C136.739 48.524 136.095 47.992 136.095 46.676V42.532H139.847V38.5H136.095V35.14H131.279V38.5H129.151V42.532H131.279V47.152C131.279 50.96 133.547 52.836 137.439 52.836C138.503 52.836 139.455 52.696 140.267 52.5V48.468C139.511 48.496 138.895 48.524 138.503 48.524ZM145.124 30.688C143.5 30.688 142.184 31.92 142.184 33.544C142.184 35.14 143.5 36.372 145.124 36.372C146.748 36.372 148.092 35.14 148.092 33.544C148.092 31.92 146.748 30.688 145.124 30.688ZM147.56 38.5H142.744V52.5H147.56V38.5ZM164.169 44.8C164.169 41.244 161.621 38.164 157.477 38.164C153.277 38.164 150.001 41.328 150.001 45.5C150.001 49.672 153.249 52.836 157.869 52.836C159.913 52.836 161.761 52.22 163.441 50.96L161.705 47.684C160.557 48.384 159.381 48.776 158.037 48.776C156.525 48.776 155.433 48.272 154.901 47.18H163.861C164.029 46.564 164.169 45.64 164.169 44.8ZM157.281 41.944C158.513 41.944 159.549 42.756 159.605 44.044H154.733C155.125 42.7 156.105 41.944 157.281 41.944ZM171.683 38.136C168.463 38.136 166.251 39.76 166.251 42.56C166.251 44.884 167.763 46.032 170.311 47.068L171.879 47.712C172.411 47.936 172.691 48.076 172.691 48.412C172.691 48.888 172.131 49.028 171.459 49.028C170.087 49.028 168.743 48.412 167.595 47.292L165.355 50.148C166.671 51.884 168.883 52.836 171.375 52.836C174.707 52.836 177.171 51.128 177.171 48.188C177.171 45.836 175.575 44.8 173.083 43.792L171.683 43.232C171.039 42.98 170.731 42.84 170.731 42.476C170.731 42.084 171.095 41.944 171.711 41.944C172.747 41.944 173.755 42.364 174.679 43.148L176.947 40.208C175.575 38.78 173.727 38.136 171.683 38.136ZM181.652 46.564C179.776 46.564 178.46 47.964 178.46 49.7C178.46 51.464 179.776 52.836 181.652 52.836C183.444 52.836 184.76 51.464 184.76 49.7C184.76 47.964 183.444 46.564 181.652 46.564Z" fill="#2B2927"/>
</svg>
